<svg xmlns="http://www.w3.org/2000/svg" viewBox="0 0 50.71 50.71"><circle cx="25.35" cy="25.35" r="21.09" fill="#03b4e3"/><circle cx="25.35" cy="25.35" r="24.85" fill="none" stroke="#333" stroke-miterlimit="10"/><path d="M23.56 28.93l-4.67-6.5V34.3a2.22 2.22 0 01-.73 1.7 2.65 2.65 0 01-3.57 0 2.22 2.22 0 01-.73-1.67V16.88a2.71 2.71 0 01.82-2 2.93 2.93 0 012.13-.8 3.23 3.23 0 012 .54 11.65 11.65 0 011.89 2.13l5 6.91 4.74-6.88c.5-.73.87-1.23 1.11-1.51a4.17 4.17 0 011-.78 3 3 0 011.51-.41 2.76 2.76 0 012 .75 2.71 2.71 0 01.75 2V34.3a2.25 2.25 0 01-.69 1.7 2.67 2.67 0 01-3.58 0 2.25 2.25 0 01-.72-1.67v-12l-4.71 6.59a2.12 2.12 0 01-1.76 1 2.16 2.16 0 01-1.79-.99z" fill="#fff"/></svg>